<?xml version="1.0" encoding="UTF-8"?>
<svg xmlns="http://www.w3.org/2000/svg" xmlns:xlink="http://www.w3.org/1999/xlink" width="2400px" height="2400px" viewBox="0 0 2400 2400" version="1.1">
<g id="surface1">
<path style=" stroke:none;fill-rule:evenodd;fill:rgb(25.882354%,52.156866%,56.862748%);fill-opacity:1;" d="M 929.550781 1478.839844 L 971.476562 1478.839844 L 967.292969 1499.808594 L 908.585938 1499.808594 L 942.128906 1298.550781 L 958.898438 1298.550781 Z M 1105.660156 1298.550781 L 1185.320312 1298.550781 L 1185.320312 1319.515625 L 1118.234375 1319.515625 L 1109.84375 1378.210938 L 1172.746094 1378.210938 L 1168.5625 1399.179688 L 1105.660156 1399.179688 L 1093.082031 1478.839844 L 1155.972656 1478.839844 L 1151.777344 1499.808594 L 1072.117188 1499.808594 Z M 1298.550781 1441.101562 L 1269.203125 1499.808594 L 1252.417969 1499.808594 L 1361.4375 1290.15625 L 1394.96875 1499.808594 L 1374.003906 1499.808594 L 1365.609375 1441.101562 Z M 1353.046875 1340.472656 L 1311.125 1420.132812 L 1365.621094 1420.132812 Z M 1596.253906 1336.289062 C 1592.042969 1323.6875 1587.859375 1315.296875 1571.089844 1315.296875 C 1558.511719 1315.296875 1545.9375 1327.894531 1541.742188 1348.851562 C 1537.558594 1365.609375 1550.132812 1374.003906 1558.527344 1378.199219 L 1571.101562 1382.382812 C 1587.886719 1394.957031 1604.632812 1407.546875 1596.265625 1441.089844 C 1592.054688 1474.644531 1566.917969 1499.792969 1537.558594 1499.792969 C 1512.394531 1499.792969 1495.636719 1483.011719 1495.636719 1449.480469 L 1516.601562 1445.273438 C 1512.394531 1466.265625 1524.96875 1483.011719 1541.753906 1483.011719 C 1558.539062 1483.011719 1575.308594 1466.25 1579.492188 1441.089844 C 1583.675781 1420.121094 1571.101562 1411.742188 1558.527344 1403.347656 L 1550.132812 1399.164062 C 1533.351562 1386.589844 1516.601562 1374.003906 1524.96875 1344.644531 C 1529.179688 1315.296875 1554.316406 1294.328125 1575.308594 1294.328125 C 1596.277344 1294.328125 1608.839844 1306.902344 1613.023438 1327.882812 Z M 1713.640625 1499.808594 L 1696.882812 1499.808594 L 1734.621094 1298.550781 L 1751.378906 1298.550781 Z M 1868.792969 1290.15625 L 1965.238281 1453.675781 L 1990.375 1298.550781 L 2007.160156 1298.550781 L 1973.628906 1508.199219 L 1877.183594 1344.65625 L 1852.007812 1499.808594 L 1831.054688 1499.808594 Z M 2254.546875 1399.179688 C 2250.363281 1424.328125 2241.972656 1449.492188 2225.199219 1470.460938 C 2208.441406 1491.425781 2183.277344 1499.808594 2162.3125 1499.808594 C 2116.179688 1499.808594 2086.832031 1453.675781 2099.394531 1399.179688 C 2107.789062 1340.472656 2153.917969 1294.339844 2200.050781 1294.339844 C 2225.199219 1294.339844 2246.15625 1311.125 2258.757812 1340.472656 L 2241.972656 1353.046875 C 2233.582031 1332.078125 2216.808594 1315.308594 2195.839844 1315.308594 C 2158.101562 1315.308594 2124.558594 1353.046875 2116.179688 1399.179688 C 2111.996094 1420.144531 2116.179688 1441.101562 2124.570312 1457.882812 C 2132.964844 1470.460938 2149.734375 1483.035156 2166.496094 1483.035156 C 2191.65625 1483.035156 2225.199219 1457.882812 2233.59375 1420.144531 L 2183.277344 1420.144531 L 2187.460938 1399.179688 Z M 1088.886719 937.945312 L 1088.886719 908.597656 L 904.390625 908.597656 L 904.390625 912.792969 C 908.585938 921.171875 908.585938 929.566406 904.390625 937.957031 L 937.933594 937.957031 C 950.519531 933.761719 958.898438 933.761719 971.476562 933.761719 L 971.476562 1105.683594 C 971.476562 1122.457031 967.292969 1139.226562 967.292969 1156 L 1025.984375 1156 L 1025.984375 1097.292969 C 1025.984375 1084.714844 1021.800781 1067.945312 1021.800781 1051.160156 C 1021.800781 1021.8125 1025.984375 992.46875 1025.984375 963.121094 L 1025.984375 933.761719 C 1046.953125 933.75 1067.921875 937.945312 1088.886719 937.945312 Z M 1369.832031 975.671875 C 1361.4375 954.703125 1348.863281 937.933594 1332.09375 925.34375 C 1306.929688 908.574219 1277.570312 904.375 1248.246094 904.375 C 1214.691406 904.375 1181.148438 912.769531 1151.789062 937.917969 C 1122.441406 958.886719 1109.855469 996.625 1109.855469 1034.363281 C 1109.855469 1067.90625 1118.246094 1101.449219 1143.398438 1126.613281 C 1168.5625 1151.777344 1206.300781 1164.351562 1239.855469 1164.351562 C 1277.570312 1164.351562 1311.136719 1155.960938 1340.484375 1130.808594 C 1365.636719 1105.648438 1382.40625 1067.90625 1382.40625 1030.167969 C 1382.394531 1013.410156 1378.210938 992.441406 1369.832031 975.671875 Z M 1168.5625 1042.769531 C 1168.5625 1017.605469 1172.746094 988.257812 1181.136719 967.292969 C 1185.320312 954.703125 1197.910156 942.128906 1206.300781 937.945312 C 1218.863281 925.355469 1231.464844 925.355469 1248.246094 925.355469 C 1302.746094 925.355469 1323.714844 979.867188 1323.714844 1025.996094 C 1323.714844 1051.160156 1319.53125 1076.324219 1306.929688 1101.476562 C 1294.351562 1126.640625 1273.398438 1143.410156 1244.039062 1143.410156 C 1189.515625 1143.398438 1168.5625 1093.082031 1168.5625 1042.769531 Z M 1415.9375 946.324219 L 1415.9375 1155.984375 L 1474.632812 1155.984375 C 1470.449219 1139.214844 1470.449219 1118.246094 1470.449219 1101.476562 L 1470.449219 1046.964844 C 1483.023438 1046.964844 1495.609375 1051.148438 1512.371094 1046.964844 C 1533.335938 1042.769531 1545.925781 1042.769531 1562.683594 1021.800781 C 1575.285156 1009.214844 1579.46875 992.453125 1579.46875 971.488281 C 1579.46875 937.945312 1562.683594 916.976562 1533.335938 908.585938 L 1415.9375 908.585938 Z M 1508.199219 933.75 C 1520.773438 946.324219 1524.957031 958.910156 1524.957031 975.683594 C 1524.957031 1000.847656 1516.589844 1021.8125 1491.425781 1025.996094 C 1487.242188 1025.996094 1478.851562 1030.195312 1470.460938 1030.195312 L 1470.460938 929.566406 C 1483.023438 929.550781 1495.625 925.355469 1508.199219 933.75 Z M 1734.621094 1155.972656 L 1797.496094 1155.972656 L 1784.921875 1135.007812 L 1722.007812 1034.363281 C 1755.5625 1025.972656 1776.53125 1005.019531 1776.53125 967.277344 C 1776.53125 942.117188 1768.136719 925.34375 1747.183594 916.964844 C 1730.398438 908.574219 1705.261719 908.574219 1688.476562 908.574219 L 1613 908.574219 C 1613 933.734375 1617.207031 963.082031 1617.207031 988.234375 L 1617.207031 1055.320312 C 1617.207031 1076.289062 1617.207031 1101.449219 1613 1126.601562 L 1613 1155.960938 L 1671.691406 1155.960938 C 1671.691406 1143.386719 1667.507812 1130.796875 1667.507812 1118.222656 L 1667.507812 1042.746094 L 1671.691406 1042.746094 C 1675.902344 1051.125 1680.085938 1055.320312 1680.085938 1063.710938 L 1692.660156 1080.496094 Z M 1722.03125 954.703125 L 1722.03125 975.671875 C 1722.03125 1013.410156 1705.273438 1030.179688 1667.535156 1025.984375 L 1667.535156 929.539062 C 1692.671875 929.550781 1713.640625 925.355469 1722.03125 954.703125 Z M 1822.660156 1155.972656 L 1839.445312 1155.972656 C 1847.835938 1130.808594 1856.230469 1109.84375 1864.609375 1088.886719 L 1864.609375 1080.507812 L 1948.453125 1080.507812 L 1973.617188 1155.984375 L 2032.308594 1155.984375 L 2032.308594 1147.59375 C 1998.753906 1072.117188 1965.210938 992.453125 1935.863281 912.792969 L 1935.863281 904.402344 C 1931.65625 904.402344 1927.472656 908.597656 1923.289062 908.597656 C 1914.898438 908.597656 1910.6875 904.402344 1906.503906 904.402344 C 1885.539062 967.304688 1860.375 1030.195312 1835.222656 1093.082031 L 1805.875 1151.789062 L 1805.875 1155.984375 Z M 1906.53125 975.671875 C 1919.105469 1005.019531 1927.496094 1030.179688 1940.0625 1059.527344 L 1872.988281 1059.527344 L 1877.171875 1055.34375 C 1885.5625 1030.179688 1898.136719 1000.835938 1906.53125 975.671875 Z M 2091.027344 1155.972656 L 2120.375 1155.972656 L 2120.375 1042.769531 C 2132.953125 1063.738281 2145.527344 1080.507812 2158.089844 1101.476562 L 2191.644531 1155.984375 L 2254.523438 1155.984375 L 2254.523438 1151.789062 L 2158.078125 1013.421875 C 2170.679688 1000.847656 2179.046875 988.257812 2191.632812 975.683594 L 2250.339844 908.597656 L 2208.40625 908.597656 C 2179.03125 946.335938 2149.699219 984.074219 2120.351562 1021.8125 L 2120.351562 908.609375 L 2065.839844 908.609375 L 2065.839844 1156 C 2074.257812 1155.972656 2082.648438 1155.972656 2091.027344 1155.972656 Z M 241.886719 1013.410156 L 241.886719 1139.203125 L 413.808594 1139.203125 L 413.808594 1415.960938 L 531.207031 1415.960938 L 531.207031 1139.203125 L 703.132812 1139.203125 L 703.132812 1013.410156 Z M 803.761719 1080.507812 C 803.761719 1172.746094 736.675781 1248.234375 652.804688 1264.992188 C 657 1281.777344 661.195312 1302.734375 661.195312 1319.515625 C 661.195312 1424.328125 577.339844 1512.382812 472.515625 1512.382812 C 367.691406 1512.382812 283.832031 1424.328125 283.832031 1319.515625 C 283.832031 1302.734375 288.015625 1281.777344 292.210938 1269.203125 C 208.355469 1248.234375 141.257812 1172.746094 141.257812 1080.507812 C 141.257812 975.683594 225.125 887.628906 329.949219 887.628906 C 388.65625 887.628906 438.972656 916.976562 472.515625 954.714844 C 506.058594 916.988281 556.371094 887.628906 615.078125 887.628906 C 719.890625 887.628906 803.761719 975.671875 803.761719 1080.507812 Z M 803.761719 1080.507812 "/>
</g>
</svg>
